<svg width="157" height="35" viewBox="0 0 157 35" fill="none" xmlns="http://www.w3.org/2000/svg">
<path d="M151.096 3.9546C152.018 3.03177 153.771 2.87578 154.89 3.62195L154.992 3.69408L155.158 3.80313C155.952 4.49279 156.178 5.48232 156.217 6.4416C156.24 7.4385 156.089 8.50684 155.345 9.28611C154.726 9.87156 154.013 10.1245 153.126 10.1404C152.202 10.1234 151.53 9.80739 150.886 9.21947L150.898 9.38C150.948 10.1383 150.945 10.8956 150.943 11.655C150.943 11.786 150.942 11.917 150.942 12.048C150.942 12.3653 150.94 12.6827 150.939 13H149.66V3.30633H150.726L150.886 4.17876L151.096 3.9546ZM142.852 3.30633C144.245 2.83051 146.19 2.90316 147.523 3.56524L147.412 3.91417C147.324 4.16297 147.224 4.40754 147.124 4.65267L147.014 4.62106C146.846 4.57296 146.677 4.52544 146.508 4.4779L146.335 4.4282C145.397 4.16488 144.287 3.98826 143.364 4.39376C143.002 4.60482 142.806 4.83933 142.712 5.22692C142.643 5.61803 142.691 5.99345 142.944 6.32263C143.464 6.88539 144.243 7.11895 144.975 7.37893C147.128 8.14478 147.128 8.14484 147.591 9.0881C147.871 9.7856 147.859 10.6018 147.523 11.2808C147.175 11.9245 146.606 12.3319 145.871 12.5753L145.734 12.6216C144.352 13.0238 142.536 12.9158 141.2 12.42C141.143 12.3682 141.143 12.3681 141.136 12.2529L141.137 12.1026L141.138 11.9402L141.139 11.7695L141.14 11.598C141.141 11.4577 141.141 11.3175 141.143 11.1772L141.249 11.2064C142.657 11.5929 144.194 11.9979 145.615 11.4264C145.978 11.2467 146.201 10.9622 146.327 10.6076C146.383 10.1354 146.372 9.70187 146.042 9.31304C145.536 8.81479 144.7 8.58395 144.022 8.34378C143.083 8.01114 141.995 7.61107 141.541 6.72394C141.217 6.04534 141.148 5.27181 141.424 4.56913C141.716 3.9784 142.211 3.57441 142.852 3.30633ZM154.196 4.52519C153.401 3.95729 152.153 3.96178 151.436 4.64527C150.962 5.16534 150.92 5.82615 150.92 6.47258C150.919 6.57959 150.918 6.68652 150.915 6.79349C150.91 7.44849 150.996 8.16364 151.473 8.68632C151.949 9.10048 152.493 9.19621 153.136 9.18419C153.62 9.15254 153.974 8.95847 154.299 8.63785C154.898 7.98261 154.998 7.05013 154.922 6.22849C154.856 5.62147 154.699 4.96599 154.196 4.52519Z" fill="white"/>
<path d="M127.985 10.5833C130.855 10.5819 133.38 11.4485 135.468 13.2976C138.283 16.2034 138.888 19.835 138.697 23.6193C138.452 26.7148 137.271 29.4037 134.825 31.568C132.662 33.1914 130.283 33.7352 127.553 33.7276L126.992 33.7353C124.202 33.737 121.756 32.9286 119.731 31.1371C117.453 28.9465 116.281 26.1596 116.167 23.1327L116.146 22.573C116.081 19.1288 116.813 15.841 119.451 13.2837C121.732 11.2339 124.279 10.583 127.399 10.5914L127.985 10.5833ZM71.4812 3.5887C72.1693 3.57085 72.8522 3.5818 73.5393 3.60581C73.7815 3.61066 74.0234 3.6151 74.2652 3.61911C74.8559 3.63068 75.4464 3.64653 76.0366 3.66664C75.3625 4.40171 74.6693 5.12187 73.9575 5.8263C73.1931 6.58596 72.4356 7.35167 71.6852 8.12332C71.2315 8.58644 70.7749 9.04743 70.3162 9.50645C69.7257 10.0981 69.139 10.6929 68.5561 11.2908C67.9735 11.8891 67.3861 12.4831 66.796 13.0752C66.1811 13.6917 65.569 14.3102 64.9589 14.9307L64.591 15.3051C64.2272 15.6882 63.8817 16.0821 63.5397 16.4818C63.833 17.08 64.2343 17.5954 64.6509 18.1242L64.8841 18.4227C65.0515 18.6368 65.2192 18.8508 65.3873 19.0644C65.6554 19.4064 65.9231 19.749 66.1903 20.0918C67.2779 21.4852 68.3765 22.8705 69.4835 24.251C70.1773 25.1182 70.8657 25.989 71.5483 26.8637C72.3518 27.8924 73.1627 28.9157 73.9795 29.9357L74.2923 30.3268L75.4014 31.7114C75.6061 31.9675 75.8106 32.224 76.0146 32.4804L76.3432 32.8925C76.5646 33.1901 76.5646 33.1901 76.5646 33.3523C72.3108 33.8367 72.3108 33.8367 71.0164 33.0994C70.2572 32.4084 69.7609 31.5657 69.2608 30.7045C68.8331 30.0029 68.3039 29.378 67.7749 28.7392C67.5695 28.4831 67.3645 28.2263 67.1596 27.9693C66.4061 27.0295 65.6441 26.0957 64.882 25.1615C64.0023 24.0808 63.1291 22.9959 62.2622 21.9065C61.637 21.1222 61.0067 20.3412 60.3715 19.5639C59.1042 19.9471 57.9557 20.8217 57.2033 21.8349C56.8967 22.749 56.9092 23.5958 56.9414 24.5445C56.9416 24.7999 56.941 25.0553 56.9393 25.3108C56.9375 25.9767 56.9497 26.6419 56.9646 27.3077C56.9775 27.9895 56.9771 28.6714 56.9782 29.3532C56.9817 30.6866 57.001 32.0192 57.0273 33.3523H52.803V3.66664H57.0273L57.2033 17.7795C59.1637 15.8532 59.1637 15.8532 61.0756 13.8863C61.3677 13.5879 61.6611 13.2905 61.9556 12.9941C62.4599 12.4848 62.961 11.9736 63.4517 11.4531C64.0906 10.7755 64.748 10.114 65.4044 9.45068C65.755 9.09401 66.1016 8.73407 66.4439 8.37093C66.9346 7.85038 67.4358 7.33922 67.94 6.82987C69.2703 5.55549 69.2703 5.55548 70.3642 4.1197C70.7231 3.72199 70.9159 3.66899 71.4812 3.5887ZM83.6051 33.3523H79.5568V10.9664H83.6051V33.3523ZM102.251 10.5811L102.813 10.5859C105.207 10.6287 107.12 11.1285 108.951 12.5886C111.1 14.944 110.987 17.9072 110.956 20.8058C110.954 21.1695 110.954 21.5332 110.953 21.8967C110.95 22.8451 110.943 23.7934 110.935 24.7415C110.928 25.7127 110.925 26.6839 110.921 27.655C110.914 29.5542 110.901 31.4533 110.887 33.3523H106.839L106.834 31.9563C106.828 30.4276 106.818 28.899 106.806 27.3703C106.799 26.4442 106.794 25.5181 106.791 24.592C106.788 23.6969 106.782 22.8019 106.774 21.9068C106.771 21.5668 106.77 21.2266 106.77 20.8865C106.83 17.6512 106.83 17.6512 105.255 14.8596C103.611 13.8198 101.714 13.6835 99.7715 13.9674C98.0712 14.3152 96.7217 14.9523 95.75 16.3196C94.586 18.3839 94.6367 20.6173 94.621 22.8812C94.6177 23.1841 94.6143 23.487 94.6106 23.79C94.6018 24.5816 94.5948 25.3735 94.5881 26.1653C94.5811 26.9754 94.5721 27.7855 94.5633 28.5958C94.5462 30.1813 94.5316 31.7668 94.5179 33.3523H90.4696V10.9664H93.8138L94.3419 13.7241L95.2219 12.913C97.3223 11.2414 99.4705 10.5456 102.251 10.5811ZM131.853 15.0662C129.191 13.1126 125.002 13.1714 122.504 15.3463C121.054 16.9289 120.468 18.9815 120.392 21.0239L120.37 21.5485C120.314 24.277 120.701 27.0213 122.79 29.0941C124.301 30.3836 126.027 30.6482 128.023 30.6287C129.946 30.5262 131.262 29.8936 132.57 28.6177C134.497 26.4294 134.656 23.3947 134.473 20.6994C134.226 18.571 133.616 16.5561 131.853 15.0662ZM79.4139 3.58553C80.2876 2.47488 81.739 2.41335 83.0771 2.87583C83.7869 3.489 83.9902 4.0868 84.0231 4.96438C83.998 5.66725 83.8674 6.15748 83.4291 6.74876C82.7369 7.32689 82.0842 7.45606 81.152 7.44325C80.3834 7.34673 79.9066 6.925 79.4028 6.41419C79.0167 5.48501 79.0702 4.51942 79.4139 3.58553Z" fill="white"/>
<path d="M0 1C4.23262 1 4.23262 1 5.9181 1.01882C8.92095 1.05164 11.924 1.06456 14.9271 1.07872L15.2855 1.08041C16.6871 1.08704 18.0886 1.0935 19.4901 1.09979L23.4701 1.11815C26.0613 1.13019 28.6525 1.14209 31.2439 1.15385V1.25641L31.0622 1.31292C30.5329 1.47956 30.0112 1.66601 29.4987 1.8718C29.3839 1.91589 29.269 1.95971 29.1539 2.00323L28.8232 2.12821C28.6546 2.19214 28.486 2.25617 28.3174 2.32031C28.2021 2.36397 28.0865 2.40739 27.9708 2.45056C27.6106 2.58493 27.6106 2.58493 27.261 2.74037C27.0613 2.83405 26.8566 2.9021 26.6454 2.97113C26.0199 3.17815 25.4178 3.43631 24.8123 3.68678C24.504 3.81408 24.1951 3.94054 23.886 4.06616C23.0288 4.41509 22.174 4.76862 21.3197 5.12319C21.0923 5.2175 20.8649 5.31134 20.637 5.40467C20.0732 5.63606 19.5153 5.87457 18.9644 6.13052C18.7876 6.21251 18.6106 6.29401 18.4332 6.37498L18.3232 6.42534C18.0465 6.55129 17.7676 6.67273 17.4882 6.79339C16.9461 7.02744 16.4114 7.2699 15.8823 7.52724C15.6675 7.63139 15.4516 7.73395 15.235 7.83493C14.5175 8.17032 13.8088 8.51519 13.1091 8.88022C12.8779 9.00047 12.6456 9.11883 12.412 9.23519C11.5221 9.67939 10.6538 10.1481 9.79538 10.641L9.61006 10.7471C8.86876 11.1722 8.13877 11.6069 7.43098 12.0769L7.29683 12.1655C6.76596 12.5164 6.245 12.8727 5.74212 13.2564L5.597 13.3618C4.53346 14.1351 3.2801 15.1031 2.87105 16.3333L2.8392 16.4259C2.70408 17.049 2.83245 17.6244 3.1888 18.1664C3.28405 18.2951 3.38419 18.4171 3.49031 18.5385L3.58134 18.645C3.85009 18.9425 4.17148 19.174 4.50362 19.4103L4.66857 19.53C5.06967 19.8173 5.48429 20.083 5.90746 20.3427C6.19873 20.5217 6.4837 20.7072 6.76726 20.896C7.02002 21.0633 7.27639 21.2256 7.53304 21.3878L7.70154 21.4944C8.28442 21.8628 8.87096 22.2264 9.45761 22.5897C9.9726 22.9088 10.4868 23.2282 10.9918 23.5603C11.3793 23.8135 11.7755 24.0552 12.1703 24.2987C12.6905 24.6202 13.2068 24.9466 13.7224 25.2743C13.9785 25.437 14.2353 25.5986 14.4926 25.7597L14.5986 25.8264C14.7888 25.9458 14.9803 26.0631 15.1736 26.1783L15.3009 26.2553C15.3817 26.3042 15.463 26.3523 15.5447 26.3999C15.6537 26.4662 15.6537 26.4662 15.819 26.5898V26.7949C15.7344 26.8688 15.7344 26.8688 15.6143 26.9373L15.4789 27.016L15.3299 27.0994L15.1762 27.1878C15.0155 27.2795 14.8544 27.3709 14.693 27.4616L14.3986 27.63C13.2202 28.3026 12.0145 28.9336 10.8087 29.5642L10.6146 29.6658C9.71431 30.1369 8.80976 30.6012 7.90105 31.0589C7.65002 31.1855 7.39911 31.3124 7.14838 31.4397C6.52655 31.7546 5.90408 32.0686 5.28095 32.3815C4.93563 32.5551 4.5902 32.7284 4.24467 32.9015L3.61917 33.2153C3.16526 33.4432 2.71299 33.6738 2.2624 33.907C1.80852 34.1417 1.35226 34.3725 0.893687 34.5993L0.720693 34.6853L0.416923 34.8351C0.281646 34.8974 0.140682 34.9488 0 35V1Z" fill="#F89129"/>
<path d="M38.5709 0C38.6807 0.151961 38.7012 0.210883 38.7296 0.383544C38.7988 0.724026 38.9267 1.03601 39.0786 1.35216L39.1319 1.46329C39.4036 1.90222 40.0941 2.07784 40.5948 2.20698C40.7097 2.23485 40.8249 2.26221 40.9403 2.28826C40.765 2.39591 40.6268 2.43669 40.4256 2.48979C39.8891 2.6392 39.3815 2.79344 39.0487 3.23492C38.9473 3.41279 38.881 3.59533 38.8178 3.78671L38.7806 3.89281C38.6983 4.13781 38.6552 4.37333 38.6272 4.62854H38.5145L38.4997 4.51578C38.4111 3.93711 38.2408 3.2562 37.7176 2.87982C37.4413 2.71112 37.1155 2.53138 36.7769 2.56312C36.5851 2.60263 36.4437 2.66208 36.2712 2.74862L36.0824 2.84255L35.8805 2.94484L35.6692 3.05067C35.487 3.14209 35.3051 3.23397 35.1235 3.3263C35.0209 3.37827 34.9182 3.43016 34.8157 3.48195C34.0244 3.88228 33.2397 4.29336 32.4615 4.71507C32.2036 4.85423 31.9444 4.99149 31.6841 5.12685C31.091 5.43628 30.5108 5.76211 29.9331 6.09531C29.7556 6.19687 29.5776 6.29781 29.3992 6.39813C28.7827 6.7457 28.1672 7.09283 27.5709 7.46925C27.4363 7.55402 27.3011 7.63802 27.1661 7.72205C26.246 8.29557 25.3406 8.88469 24.4672 9.51709L24.3227 9.62151C23.9306 9.9076 23.5486 10.2047 23.1695 10.5052L23.0331 10.6129C22.8882 10.7306 22.7457 10.8507 22.6054 10.9733L22.4931 11.0705C21.6225 11.8314 20.5425 12.8117 20.4929 13.9906C20.4782 14.6873 20.612 15.1657 21.1422 15.6928C22.0435 16.4461 23.1556 16.9426 24.2485 17.4154L24.4033 17.484C24.6098 17.5708 24.7628 17.6296 24.9915 17.6321C25.1824 17.5644 25.2908 17.4759 25.4367 17.344L25.6823 17.1283C25.8093 17.0199 25.9435 16.9206 26.0785 16.8207C26.2798 16.6712 26.4761 16.5162 26.6674 16.3559C26.9099 16.152 27.1616 15.961 27.4165 15.7708C27.5655 15.6572 27.709 15.5397 27.852 15.4198C28.0903 15.2198 28.3366 15.0314 28.5869 14.8444C28.8764 14.6256 29.1594 14.3994 29.443 14.1741C29.6409 14.017 29.8393 13.8605 30.0376 13.704C30.2046 13.5722 30.3712 13.4403 30.5376 13.3081C30.8385 13.0693 31.14 12.8321 31.4485 12.6017C31.6954 12.417 31.9313 12.2236 32.1662 12.0262C32.3127 11.9061 32.463 11.792 32.6155 11.6786C32.8293 11.519 33.0374 11.3532 33.2397 11.1813C33.4918 10.9673 33.7525 10.7668 34.0191 10.5684C34.1675 10.4555 34.3103 10.3387 34.4525 10.2192C34.6951 10.0154 34.9468 9.82434 35.2019 9.6341C35.3507 9.52047 35.4944 9.4031 35.6373 9.28307C35.8791 9.07982 36.1298 8.88922 36.3845 8.69982C36.5938 8.53969 36.793 8.37015 36.9914 8.19884C37.104 8.11292 37.104 8.11292 37.2169 8.11292V35H20.0104C20.0668 34.896 20.0668 34.896 20.2168 34.8476L20.4089 34.7985C20.6671 34.7285 20.8996 34.6527 21.1356 34.5341C21.253 34.4793 21.3702 34.4364 21.4932 34.3936C21.8986 34.2456 22.2865 34.0652 22.6759 33.8851L22.7958 33.8299C23.5034 33.5029 24.1913 33.152 24.8621 32.7638L24.9675 32.7029C25.4237 32.4376 25.8518 32.1382 26.2724 31.8276L26.3625 31.7613C27.9911 30.5515 29.3592 29.0179 29.5902 27.0426C29.7136 25.852 29.2034 24.7865 28.4 23.8821C27.9905 23.4306 27.5133 23.0796 27.0058 22.7266L26.9128 22.6611C25.9139 21.9619 24.7929 21.4274 23.6773 20.9065L23.5546 20.8491C23.3748 20.7654 23.1947 20.6824 23.0143 20.6C22.8324 20.5169 22.6509 20.433 22.4699 20.3481C21.8711 20.0691 21.2692 19.7987 20.6592 19.5412C20.1174 19.3125 19.5796 19.0803 19.0512 18.8261L18.8874 18.7478C17.8067 18.2289 16.754 17.7078 15.892 16.9019L15.7731 16.7921C15.2314 16.2596 15.062 15.6401 15.0853 14.9268C15.1641 13.6562 16.4947 12.4785 17.4571 11.6709C17.5739 11.5761 17.6916 11.4822 17.8101 11.3893L17.9701 11.2611C20.4004 9.3256 23.2787 7.83313 26.1031 6.44873L26.263 6.37C27.6107 5.70672 28.9892 5.097 30.3801 4.51479L30.4946 4.46685C31.1391 4.1975 31.7858 3.93139 32.4457 3.69528C32.6195 3.6296 32.7905 3.55888 32.9621 3.4883C33.5353 3.2536 34.1086 3.02701 34.7071 2.85299C34.8737 2.79995 35.0226 2.72927 35.1776 2.65271C35.388 2.56171 35.6106 2.50331 35.8325 2.44065C35.9828 2.40044 35.9828 2.40044 36.0886 2.28826C36.3246 2.21078 36.5622 2.14171 36.8022 2.07534C37.4676 1.88719 37.8881 1.66622 38.2323 1.09212C38.3115 0.903604 38.3686 0.712586 38.4228 0.516834L38.467 0.365341C38.5025 0.243786 38.5371 0.122006 38.5709 0Z" fill="#F89129"/>
</svg>
