<svg width="1539" height="269" viewBox="0 0 1539 269" fill="none" xmlns="http://www.w3.org/2000/svg">
<path d="M1042.94 81.924C1060.23 62.8841 1093.11 59.6658 1114.08 75.0607L1116 76.549L1119.12 78.799C1134 93.028 1138.25 113.444 1138.98 133.236C1139.4 153.804 1136.57 175.846 1122.62 191.924C1111.01 204.003 1097.65 209.221 1081 209.549C1063.68 209.199 1051.07 202.679 1039 190.549L1039.22 193.861C1040.16 209.506 1040.11 225.131 1040.06 240.799C1040.06 243.501 1040.05 246.205 1040.05 248.908C1040.04 255.454 1040.02 262.002 1040 268.549H1016V68.549H1036L1039 86.549L1042.94 81.924ZM901 25.549C925.457 16.36 959.607 17.763 983 30.549L981.047 37.2873C979.505 42.0921 977.745 46.8152 976 51.549L974.063 50.9387C971.108 50.0097 968.147 49.092 965.188 48.174L962.143 47.2141C945.673 42.1291 926.191 38.7181 910 46.549C903.634 50.625 900.19 55.1539 898.54 62.6389C897.344 70.1919 898.181 77.442 902.625 83.799C911.75 94.6669 925.421 99.1774 938.271 104.198C976.066 118.988 976.066 118.989 984.184 137.205C989.098 150.675 988.89 166.437 983 179.549C976.884 191.98 966.896 199.848 954 204.549L951.602 205.444C927.343 213.21 895.465 211.124 872 201.549C871 200.549 871 200.548 870.886 198.323L870.902 195.42L870.912 192.284L870.938 188.987L870.951 185.676C870.963 182.967 870.979 180.258 871 177.549L872.865 178.114C897.575 185.578 924.557 193.398 949.5 182.362C955.872 178.892 959.79 173.398 962 166.549C962.99 157.43 962.79 149.058 957 141.549C948.117 131.927 933.448 127.469 921.54 122.831C905.059 116.407 885.958 108.681 878 91.549C872.3 78.444 871.086 63.5057 875.934 49.9357C881.06 38.5278 889.75 30.726 901 25.549ZM1366.38 66.174L1369.96 66.1994C1381.9 66.3994 1392.26 68.105 1403 73.549C1402.11 76.5349 1401.19 79.5142 1400.25 82.4865L1399.48 85.0627L1398.7 87.5129L1398 89.7824C1397 91.5484 1397 91.5488 1395.1 92.3488C1391.85 92.6597 1389.22 91.639 1386.13 90.675C1372.77 86.55 1358.68 85.3146 1345.83 91.6154C1336.63 96.8654 1332.12 104.571 1329 114.55C1324.65 132.943 1324.28 155.704 1334.19 172.362L1335.73 174.632C1337 176.549 1337 176.549 1338 179.549C1339.79 180.649 1339.79 180.649 1342 181.549L1344.44 182.803C1345.28 183.235 1346.13 183.667 1347 184.111L1349.56 185.428C1365.24 192.64 1385.81 185.612 1401 180.549V201.549C1381.71 210.075 1358.35 212.666 1338.21 205.037C1333.53 202.869 1329.19 200.576 1325 197.549L1323.09 196.186C1310.49 186.333 1305.23 170.645 1302.44 155.498C1299.84 132.058 1301.09 106.27 1316 86.924C1317.3 85.4376 1318.64 83.9789 1320 82.549L1321.57 80.8576C1333.48 69.3998 1350.48 65.979 1366.38 66.174ZM1437.43 84.6115C1455.76 61.3546 1494.06 60.492 1517 76.549L1518.86 77.7756C1529.44 85.6666 1535.37 99.674 1537.67 112.221C1539.17 122.516 1539 131.985 1539 142.549H1445C1447.3 160.519 1447.3 160.519 1456 175.549V177.549L1457.77 178.397C1459.86 179.476 1461.74 180.675 1463.69 181.987C1477.78 190.764 1495.75 189.608 1511.42 185.99C1516.34 184.698 1521.17 183.167 1526 181.549L1532 179.549V200.549L1523.21 204.162C1512.73 207.87 1502.15 209.065 1491.1 208.995C1489.07 208.987 1487.04 209.015 1485.01 209.047C1466.62 209.145 1450.97 203.489 1437.73 190.463C1424.33 176.163 1420.6 157.47 1420.62 138.487L1420.63 134.607C1420.76 124.723 1421.88 115.91 1425 106.549L1425.91 103.658C1428.19 97.2166 1431.86 91.9389 1436 86.549L1437.43 84.6115ZM1175 77.549C1198.89 66.783 1233.91 57.4125 1257.07 74.8615C1267.72 84.1865 1270.9 94.667 1272 108.549C1272.33 116.145 1272.23 123.753 1272.2 131.354L1272.19 137.885C1272.18 143.57 1272.16 149.255 1272.14 154.939C1272.12 160.759 1272.11 166.578 1272.1 172.397C1272.08 183.781 1272.04 195.165 1272 206.549H1254L1250 188.549L1245 193.549C1232.65 204.94 1221.29 208.722 1204.81 208.799C1203.18 208.829 1203.18 208.829 1201.52 208.862C1189.5 208.918 1179.02 205.907 1169.96 197.696C1160.76 187.857 1159.51 176.984 1159.72 164.08C1160.15 153.84 1164.64 145.657 1171.96 138.678C1192.63 121.3 1223.73 123.161 1249 123.549C1248.77 120.402 1248.52 117.255 1248.25 114.112L1248.06 111.448C1247.4 103.919 1245.42 97.7289 1240.81 91.674C1234.59 86.9732 1227.44 86.0125 1219.81 86.1115L1217.31 86.132C1206.2 86.4201 1196.48 90.08 1186.43 94.5959C1184 95.5488 1184 95.549 1181 95.549C1179.99 93.1141 1178.99 90.6762 1178 88.2365L1177.13 86.1447C1175.91 83.1339 1175 80.8299 1175 77.549ZM1249 139.549C1217.54 138.389 1217.54 138.39 1190.17 151.26C1184.88 157.454 1183.56 162.68 1183.76 170.803C1184.28 176.761 1185.87 180.843 1190.31 184.924C1197 190.066 1204.98 190.933 1213.22 190.303C1220.04 189.403 1225.99 187.928 1232 184.549L1233.89 183.494C1241.68 178.574 1245.94 170.33 1248 161.549C1249.37 154.292 1249.1 146.903 1249 139.549ZM1101.08 93.6965C1086.16 81.9796 1062.76 82.0722 1049.31 96.174C1040.43 106.904 1039.63 120.538 1039.63 133.875C1039.62 136.083 1039.59 138.289 1039.55 140.496C1039.44 154.01 1041.07 168.765 1050 179.549C1058.94 188.094 1069.13 190.069 1081.2 189.821C1090.27 189.168 1096.91 185.164 1103 178.549C1114.23 165.03 1116.12 145.791 1114.69 128.839C1113.45 116.315 1110.5 102.791 1101.08 93.6965ZM1504 93.549C1495.99 86.1391 1487.65 84.9912 1477.19 85.2092C1468.81 85.6692 1461.11 89.1688 1455.52 95.4865C1449.55 103.569 1445 113.289 1445 123.549H1514C1514 111.978 1512.17 102.128 1504 93.549Z" fill="#378ED5"/>
<path d="M788.143 66.1876C804.449 66.1786 818.79 71.521 830.653 82.92C846.649 100.833 850.087 123.22 849 146.549C847.608 165.631 840.897 182.207 827 195.549C814.715 205.557 801.197 208.909 785.688 208.862L782.502 208.91C766.65 208.92 752.751 203.937 741.246 192.893C728.306 179.389 721.643 162.209 721 143.549L720.879 140.099C720.508 118.867 724.666 98.599 739.656 82.8341C752.616 70.1982 767.084 66.1854 784.813 66.2374L788.143 66.1876ZM467.119 23.0685C471.028 22.9585 474.908 23.026 478.812 23.174C480.188 23.2039 481.562 23.2313 482.936 23.256C486.292 23.3273 489.647 23.425 493 23.549C489.17 28.0804 485.232 32.5199 481.188 36.8624C476.845 41.5454 472.541 46.2657 468.278 51.0226C465.7 53.8775 463.106 56.7193 460.5 59.549C457.145 63.196 453.812 66.8628 450.5 70.549C447.19 74.2369 443.853 77.899 440.5 81.549C437.007 85.3492 433.529 89.1624 430.063 92.9874L427.973 95.295C425.906 97.657 423.943 100.085 422 102.549C423.666 106.237 425.946 109.414 428.313 112.674L429.638 114.514C430.589 115.834 431.542 117.153 432.497 118.47C434.02 120.578 435.541 122.69 437.059 124.803C443.238 133.393 449.48 141.933 455.769 150.443C459.711 155.789 463.622 161.157 467.5 166.549C472.065 172.891 476.672 179.199 481.313 185.487L483.09 187.898L489.391 196.433C490.554 198.012 491.716 199.593 492.875 201.174L494.742 203.714C496 205.549 496 205.549 496 206.549C471.832 209.535 471.832 209.535 464.478 204.99C460.165 200.73 457.345 195.535 454.504 190.226C452.074 185.901 449.067 182.049 446.062 178.111C444.895 176.532 443.73 174.949 442.566 173.365C438.285 167.571 433.956 161.815 429.626 156.056C424.628 149.394 419.667 142.706 414.742 135.99C411.19 131.155 407.609 126.341 404 121.549C396.8 123.911 390.275 129.303 386 135.549C384.258 141.184 384.329 146.404 384.512 152.252C384.513 153.827 384.51 155.401 384.5 156.976C384.49 161.081 384.559 165.182 384.644 169.286C384.717 173.489 384.715 177.693 384.721 181.896C384.741 190.116 384.851 198.331 385 206.549H361V23.549H385L386 110.549C397.138 98.674 397.138 98.6739 408 86.549C409.66 84.7097 411.327 82.8763 413 81.049C415.865 77.909 418.712 74.7579 421.5 71.549C425.13 67.372 428.865 63.2941 432.594 59.2052C434.586 57.0065 436.555 54.7876 438.5 52.549C441.288 49.34 444.135 46.1889 447 43.049C454.558 35.193 454.558 35.1929 460.773 26.3419C462.812 23.8902 463.907 23.5635 467.119 23.0685ZM536 206.549H513V68.549H536V206.549ZM641.938 66.174L645.129 66.2032C658.727 66.4672 669.599 69.548 680 78.549C692.21 93.069 691.568 111.336 691.39 129.205C691.383 131.447 691.378 133.689 691.373 135.93C691.358 141.776 691.319 147.622 691.275 153.467C691.233 159.454 691.215 165.441 691.195 171.427C691.153 183.135 691.082 194.842 691 206.549H668L667.972 197.943C667.938 188.519 667.882 179.096 667.816 169.672C667.775 163.963 667.747 158.254 667.729 152.545C667.714 147.027 667.679 141.51 667.632 135.992C667.617 133.896 667.609 131.799 667.608 129.702C667.953 109.758 667.953 109.758 659 92.549C649.66 86.139 638.885 85.299 627.848 87.049C618.188 89.193 610.521 93.1201 605 101.549C598.387 114.275 598.675 128.043 598.586 141.999C598.567 143.866 598.548 145.733 598.527 147.601C598.477 152.481 598.437 157.363 598.399 162.244C598.359 167.238 598.308 172.232 598.258 177.227C598.161 187.001 598.078 196.775 598 206.549H575V68.549H594L597 85.549L602 80.549C613.933 70.244 626.138 65.955 641.938 66.174ZM810.117 93.8224C794.99 81.7794 771.194 82.142 757 95.549C748.762 105.305 745.434 117.959 745 130.549L744.879 133.783C744.561 150.603 746.76 167.521 758.625 180.299C767.21 188.248 777.017 189.879 788.359 189.759C799.281 189.127 806.757 185.227 814.188 177.362C825.14 163.872 826.043 145.164 825 128.549C823.596 115.428 820.133 103.007 810.117 93.8224ZM512.188 23.049C517.152 16.2023 525.398 15.823 533 18.674C537.033 22.4539 538.188 26.1391 538.375 31.549C538.232 35.8819 537.49 38.904 535 42.549C531.067 46.1129 527.359 46.9092 522.063 46.8302C517.696 46.2352 514.987 43.6354 512.125 40.4865C509.931 34.7585 510.235 28.806 512.188 23.049Z" fill="#E97A21"/>
<path d="M0 3.59735C30.0521 3.59735 30.0521 3.59735 42.0192 3.74404C63.3397 3.99985 84.6619 4.10058 105.984 4.21089L108.529 4.22408C118.48 4.27577 128.431 4.32613 138.382 4.37517L166.64 4.51827C185.038 4.61208 203.436 4.70481 221.835 4.79646V5.59586L220.545 6.03634C216.787 7.33517 213.083 8.78837 209.444 10.3923C208.629 10.736 207.813 11.0775 206.996 11.4167L204.648 12.3908C203.451 12.8891 202.254 13.3882 201.057 13.8881C200.238 14.2284 199.417 14.5668 198.596 14.9033C196.038 15.9506 196.038 15.9506 193.556 17.1621C192.138 17.8923 190.685 18.4227 189.185 18.9607C184.744 20.5743 180.469 22.5864 176.17 24.5386C173.981 25.5308 171.788 26.5165 169.593 27.4956C163.507 30.2152 157.438 32.9707 151.372 35.7343C149.758 36.4694 148.143 37.2008 146.525 37.9282C142.522 39.7317 138.561 41.5907 134.649 43.5856C133.394 44.2247 132.137 44.8599 130.878 45.491L130.097 45.8835C128.132 46.8652 126.152 47.8117 124.168 48.7522C120.319 50.5764 116.523 52.4662 112.766 54.4719C111.241 55.2837 109.708 56.0831 108.17 56.8701C103.076 59.4842 98.0443 62.1722 93.076 65.0173C91.4348 65.9546 89.7849 66.8771 88.1265 67.784C81.8084 71.2462 75.643 74.8995 69.5483 78.7415L68.2325 79.5685C62.9692 82.8812 57.7862 86.2695 52.7608 89.9331L51.8083 90.6234C48.0391 93.3582 44.3402 96.1353 40.7697 99.1263L39.7393 99.9477C32.1881 105.975 23.2891 113.52 20.3848 123.108L20.1586 123.83C19.1993 128.686 20.1107 133.171 22.6408 137.396C23.3171 138.399 24.0281 139.35 24.7816 140.296L25.4279 141.126C27.3361 143.445 29.618 145.249 31.9762 147.091L33.1474 148.024C35.9952 150.263 38.9391 152.334 41.9436 154.358C44.0117 155.753 46.035 157.199 48.0483 158.671C49.8429 159.975 51.6632 161.24 53.4854 162.504L54.6818 163.335C58.8203 166.206 62.9848 169.04 67.1501 171.872C70.8066 174.359 74.4571 176.848 78.0428 179.437C80.7943 181.41 83.6071 183.294 86.4102 185.192C90.1042 187.698 93.7699 190.242 97.4308 192.796C99.2486 194.064 101.072 195.324 102.899 196.579L103.652 197.099C105.002 198.03 106.362 198.944 107.734 199.842L108.638 200.442C109.212 200.823 109.789 201.198 110.369 201.569C111.143 202.086 111.143 202.086 112.317 203.049V204.648C111.716 205.224 111.716 205.224 110.863 205.758L109.902 206.371L108.844 207.021L107.753 207.71C106.612 208.425 105.468 209.137 104.322 209.844L102.232 211.157C93.865 216.399 85.3046 221.317 76.743 226.232L75.3648 227.024C68.9727 230.696 62.5503 234.315 56.0983 237.882C54.316 238.869 52.5345 239.858 50.7543 240.85C46.3392 243.305 41.9196 245.752 37.4953 248.191C35.0435 249.544 32.5909 250.895 30.1376 252.244L25.6965 254.69C22.4737 256.466 19.2625 258.263 16.0633 260.081C12.8407 261.91 9.60118 263.709 6.34528 265.477L5.117 266.147L2.9602 267.315C1.99972 267.8 0.998858 268.201 0 268.6V3.59735Z" fill="#F89129"/>
<path d="M272.21 0C272.988 1.16793 273.133 1.62079 273.334 2.94781C273.824 5.56466 274.729 7.96248 275.805 10.3923L276.182 11.2464C278.106 14.6199 282.994 15.9697 286.539 16.9622C287.353 17.1764 288.168 17.3867 288.985 17.5869C287.744 18.4143 286.766 18.7277 285.341 19.1358C281.543 20.2841 277.949 21.4696 275.593 24.8627C274.875 26.2297 274.406 27.6327 273.958 29.1036L273.695 29.919C273.112 31.802 272.807 33.6122 272.609 35.5736H271.811L271.706 34.707C271.079 30.2595 269.873 25.0262 266.169 22.1335C264.213 20.8369 261.906 19.4555 259.509 19.6994C258.151 20.0031 257.15 20.46 255.929 21.1251L254.592 21.847L253.163 22.6332L251.667 23.4466C250.377 24.1492 249.089 24.8554 247.803 25.565C247.077 25.9644 246.35 26.3632 245.624 26.7613C240.022 29.8381 234.466 32.9975 228.957 36.2387C227.131 37.3082 225.296 38.3632 223.453 39.4035C219.254 41.7817 215.146 44.2859 211.056 46.8468C209.799 47.6274 208.539 48.4032 207.276 49.1742C202.911 51.8455 198.554 54.5135 194.332 57.4065C193.379 58.058 192.422 58.7036 191.466 59.3495C184.952 63.7574 178.542 68.2852 172.358 73.1456L171.335 73.9482C168.559 76.147 165.855 78.4305 163.171 80.74L162.205 81.5674C161.179 82.4723 160.17 83.3956 159.177 84.3373L158.382 85.0847C152.218 90.9324 144.572 98.4668 144.221 107.528C144.117 112.882 145.064 116.559 148.818 120.61C155.199 126.4 163.072 130.216 170.81 133.85L171.906 134.377C173.368 135.044 174.451 135.496 176.07 135.515C177.422 134.995 178.189 134.315 179.222 133.301L180.961 131.643C181.86 130.81 182.81 130.047 183.766 129.279C185.191 128.13 186.581 126.939 187.935 125.707C189.652 124.14 191.434 122.672 193.239 121.21C194.294 120.337 195.31 119.434 196.322 118.512C198.009 116.975 199.753 115.527 201.525 114.09C203.575 112.408 205.578 110.67 207.586 108.938C208.987 107.731 210.392 106.528 211.796 105.325C212.978 104.312 214.158 103.298 215.336 102.282C217.466 100.447 219.601 98.6235 221.785 96.8532C223.533 95.4334 225.203 93.947 226.866 92.4297C227.903 91.5072 228.967 90.6302 230.047 89.7585C231.561 88.5318 233.034 87.2571 234.466 85.9361C236.251 84.2917 238.097 82.7505 239.984 81.2256C241.035 80.3579 242.046 79.4601 243.053 78.5416C244.77 76.9752 246.552 75.5071 248.358 74.0449C249.412 73.1716 250.429 72.2695 251.441 71.347C253.153 69.7849 254.928 68.32 256.731 66.8643C258.213 65.6336 259.623 64.3306 261.028 63.0139C261.825 62.3536 261.825 62.3536 262.624 62.3536V269H140.805C141.204 268.201 141.204 268.201 142.266 267.829L143.626 267.451C145.454 266.913 147.1 266.331 148.771 265.419C149.602 264.998 150.432 264.668 151.303 264.339C154.173 263.202 156.919 261.815 159.676 260.431L160.525 260.007C165.535 257.494 170.405 254.797 175.154 251.813L175.9 251.345C179.13 249.306 182.161 247.005 185.139 244.618L185.777 244.108C197.307 234.81 206.993 223.023 208.628 207.842C209.502 198.691 205.89 190.502 200.202 183.551C197.303 180.081 193.924 177.383 190.331 174.67L189.673 174.167C182.601 168.793 174.664 164.685 166.766 160.681L165.897 160.24C164.624 159.597 163.349 158.959 162.072 158.326C160.784 157.687 159.499 157.042 158.218 156.39C153.978 154.245 149.717 152.167 145.398 150.188C141.562 148.43 137.755 146.646 134.014 144.692L132.854 144.09C125.203 140.102 117.75 136.097 111.647 129.903L110.805 129.059C106.97 124.967 105.771 120.205 105.936 114.723C106.494 104.958 115.914 95.9063 122.728 89.6989C123.555 88.9707 124.388 88.2492 125.227 87.5349L126.36 86.5497C143.566 71.6739 163.944 60.2032 183.94 49.5631L185.072 48.958C194.614 43.8602 204.373 39.1741 214.221 34.6994L215.031 34.3309C219.594 32.2608 224.173 30.2155 228.845 28.4009C230.075 27.8961 231.286 27.3525 232.501 26.8101C236.559 25.0062 240.618 23.2647 244.855 21.9273C246.035 21.5196 247.089 20.9764 248.186 20.388C249.676 19.6886 251.252 19.2397 252.823 18.7581C253.887 18.4491 253.887 18.4491 254.636 17.5869C256.307 16.9914 257.989 16.4606 259.688 15.9505C264.399 14.5044 267.376 12.8061 269.813 8.39376C270.374 6.94484 270.778 5.47673 271.162 3.97224L271.475 2.80791C271.726 1.87367 271.971 0.937703 272.21 0Z" fill="#F89129"/>
</svg>
